<svg xmlns="http://www.w3.org/2000/svg" viewBox="0 0 64 64">
  <defs>
    <linearGradient id="g" x1="0" y1="1" x2="1" y2="0">
      <stop offset="0" stop-color="#3b82f6"/>
      <stop offset="0.45" stop-color="#8b5cf6"/>
      <stop offset="0.75" stop-color="#ec4899"/>
      <stop offset="1" stop-color="#fb923c"/>
    </linearGradient>
    <mask id="m">
      <rect width="64" height="64" fill="white"/>
      <path d="M31 51 C26.5 47 19 42 19 35 C19 30.4 22.6 27.2 26.6 27.2 C29.2 27.2 30.9 28.7 31.6 29.8 C32.3 28.7 34 27.2 36.6 27.2 C40.6 27.2 44.2 30.4 44.2 35 C44.2 42 35.5 47 31 51 Z" fill="black"/>
      <rect x="41" y="37.5" width="15" height="6.5" fill="black"/>
    </mask>
  </defs>
  <ellipse cx="21.5" cy="12.5" rx="7.5" ry="4.8" transform="rotate(-28 21.5 12.5)" fill="url(#g)"/>
  <ellipse cx="42.5" cy="12.5" rx="7.5" ry="4.8" transform="rotate(28 42.5 12.5)" fill="url(#g)"/>
  <circle cx="32" cy="7.5" r="4.5" fill="url(#g)"/>
  <rect x="10" y="20" width="44" height="42" rx="15" fill="url(#g)" mask="url(#m)"/>
</svg>
